# xmcd
#
# Track frame offsets: 
#        150
#        16667
#        39550
#        53864
#        73553
#        93048
#        111152
#        126822
#        142790
#        161604
#        178584
#        198160
#        222955
#        240362
#        256729
#
# Disc length: 3715 seconds
#
# Revision: 0
# Processed by: cddbd v1.5.1PL0 Copyright (c) Steve Scherf et al.
# Submitted via: ExactAudioCopy v0.95a5
#
DISCID=bb0e810f
DTITLE=Carol Banawa - Platinum Hits Collection
DYEAR=2004
DGENRE=Ballad
TTITLE0=Noon At Ngayon
TTITLE1=Langit Na Bituin
TTITLE2=And Kulang Na Lang
TTITLE3=Stay
TTITLE4=Itanong Mo Sa Puso Ko
TTITLE5=Bawat Pintig Ng Puso
TTITLE6=Can Never Be Me
TTITLE7=Hanggang Sa Muli
TTITLE8=Bakit 'di Totohanin
TTITLE9=Till It's Time
TTITLE10=Get Here With Juddha Paolo
TTITLE11=Iingatan Ka
TTITLE12=I'll Be There
TTITLE13=All The Years
TTITLE14=Ocean Deep
EXTD=
EXTT0=
EXTT1=
EXTT2=
EXTT3=
EXTT4=
EXTT5=
EXTT6=
EXTT7=
EXTT8=
EXTT9=
EXTT10=
EXTT11=
EXTT12=
EXTT13=
EXTT14=
PLAYORDER=
